solid ascii
  facet normal -1.000000e+000 0.000000e+000 -0.000000e+000
    outer loop
      vertex   -1.200000e+001 -2.100000e+001 2.000000e+001
      vertex   -1.200000e+001 -1.300000e+001 2.000000e+001
      vertex   -1.200000e+001 -2.100000e+001 3.000000e+000
    endloop
  endfacet
  facet normal -1.000000e+000 0.000000e+000 0.000000e+000
    outer loop
      vertex   -1.200000e+001 -2.100000e+001 3.000000e+000
      vertex   -1.200000e+001 -1.300000e+001 2.000000e+001
      vertex   -1.200000e+001 -1.300000e+001 3.000000e+000
    endloop
  endfacet
  facet normal -0.000000e+000 1.000000e+000 0.000000e+000
    outer loop
      vertex   -1.200000e+001 -1.300000e+001 2.000000e+001
      vertex   -1.000000e+001 -1.300000e+001 2.000000e+001
      vertex   -1.200000e+001 -1.300000e+001 3.000000e+000
    endloop
  endfacet
  facet normal -0.000000e+000 1.000000e+000 0.000000e+000
    outer loop
      vertex   -1.200000e+001 -1.300000e+001 3.000000e+000
      vertex   -1.000000e+001 -1.300000e+001 2.000000e+001
      vertex   -1.000000e+001 -1.300000e+001 3.000000e+000
    endloop
  endfacet
  facet normal 1.000000e+000 0.000000e+000 0.000000e+000
    outer loop
      vertex   -1.000000e+001 -1.300000e+001 2.000000e+001
      vertex   -1.000000e+001 -1.800000e+001 2.000000e+001
      vertex   -1.000000e+001 -1.300000e+001 3.000000e+000
    endloop
  endfacet
  facet normal 1.000000e+000 0.000000e+000 0.000000e+000
    outer loop
      vertex   -1.000000e+001 -1.300000e+001 3.000000e+000
      vertex   -1.000000e+001 -1.800000e+001 2.000000e+001
      vertex   -1.000000e+001 -1.800000e+001 3.000000e+000
    endloop
  endfacet
  facet normal -0.000000e+000 1.000000e+000 0.000000e+000
    outer loop
      vertex   -1.000000e+001 -1.800000e+001 2.000000e+001
      vertex   1.000000e+001 -1.800000e+001 2.000000e+001
      vertex   -1.000000e+001 -1.800000e+001 3.000000e+000
    endloop
  endfacet
  facet normal -0.000000e+000 1.000000e+000 0.000000e+000
    outer loop
      vertex   -1.000000e+001 -1.800000e+001 3.000000e+000
      vertex   1.000000e+001 -1.800000e+001 2.000000e+001
      vertex   1.000000e+001 -1.800000e+001 3.000000e+000
    endloop
  endfacet
  facet normal -1.000000e+000 0.000000e+000 -0.000000e+000
    outer loop
      vertex   1.000000e+001 -1.800000e+001 2.000000e+001
      vertex   1.000000e+001 -1.300000e+001 2.000000e+001
      vertex   1.000000e+001 -1.800000e+001 3.000000e+000
    endloop
  endfacet
  facet normal -1.000000e+000 0.000000e+000 0.000000e+000
    outer loop
      vertex   1.000000e+001 -1.800000e+001 3.000000e+000
      vertex   1.000000e+001 -1.300000e+001 2.000000e+001
      vertex   1.000000e+001 -1.300000e+001 3.000000e+000
    endloop
  endfacet
  facet normal -0.000000e+000 1.000000e+000 0.000000e+000
    outer loop
      vertex   1.000000e+001 -1.300000e+001 2.000000e+001
      vertex   1.200000e+001 -1.300000e+001 2.000000e+001
      vertex   1.000000e+001 -1.300000e+001 3.000000e+000
    endloop
  endfacet
  facet normal -0.000000e+000 1.000000e+000 0.000000e+000
    outer loop
      vertex   1.000000e+001 -1.300000e+001 3.000000e+000
      vertex   1.200000e+001 -1.300000e+001 2.000000e+001
      vertex   1.200000e+001 -1.300000e+001 3.000000e+000
    endloop
  endfacet
  facet normal 1.000000e+000 0.000000e+000 0.000000e+000
    outer loop
      vertex   1.200000e+001 -1.300000e+001 2.000000e+001
      vertex   1.200000e+001 -2.100000e+001 2.000000e+001
      vertex   1.200000e+001 -1.300000e+001 3.000000e+000
    endloop
  endfacet
  facet normal 1.000000e+000 0.000000e+000 0.000000e+000
    outer loop
      vertex   1.200000e+001 -1.300000e+001 3.000000e+000
      vertex   1.200000e+001 -2.100000e+001 2.000000e+001
      vertex   1.200000e+001 -2.100000e+001 3.000000e+000
    endloop
  endfacet
  facet normal 0.000000e+000 0.000000e+000 1.000000e+000
    outer loop
      vertex   -1.000000e+001 -1.300000e+001 2.000000e+001
      vertex   -1.200000e+001 -1.300000e+001 2.000000e+001
      vertex   -1.000000e+001 -1.800000e+001 2.000000e+001
    endloop
  endfacet
  facet normal 0.000000e+000 0.000000e+000 1.000000e+000
    outer loop
      vertex   -1.000000e+001 -1.800000e+001 2.000000e+001
      vertex   -1.200000e+001 -1.300000e+001 2.000000e+001
      vertex   -1.200000e+001 -2.100000e+001 2.000000e+001
    endloop
  endfacet
  facet normal 0.000000e+000 0.000000e+000 1.000000e+000
    outer loop
      vertex   1.200000e+001 -2.100000e+001 2.000000e+001
      vertex   -1.000000e+001 -1.800000e+001 2.000000e+001
      vertex   -1.200000e+001 -2.100000e+001 2.000000e+001
    endloop
  endfacet
  facet normal 0.000000e+000 0.000000e+000 1.000000e+000
    outer loop
      vertex   1.200000e+001 -2.100000e+001 2.000000e+001
      vertex   1.000000e+001 -1.800000e+001 2.000000e+001
      vertex   -1.000000e+001 -1.800000e+001 2.000000e+001
    endloop
  endfacet
  facet normal 0.000000e+000 -0.000000e+000 1.000000e+000
    outer loop
      vertex   1.200000e+001 -2.100000e+001 2.000000e+001
      vertex   1.200000e+001 -1.300000e+001 2.000000e+001
      vertex   1.000000e+001 -1.800000e+001 2.000000e+001
    endloop
  endfacet
  facet normal 0.000000e+000 -0.000000e+000 1.000000e+000
    outer loop
      vertex   1.000000e+001 -1.800000e+001 2.000000e+001
      vertex   1.200000e+001 -1.300000e+001 2.000000e+001
      vertex   1.000000e+001 -1.300000e+001 2.000000e+001
    endloop
  endfacet
  facet normal 1.000000e+000 0.000000e+000 0.000000e+000
    outer loop
      vertex   4.500000e+001 2.100000e+001 3.000000e+000
      vertex   4.500000e+001 -2.100000e+001 3.000000e+000
      vertex   4.500000e+001 2.100000e+001 1.500000e+000
    endloop
  endfacet
  facet normal 1.000000e+000 0.000000e+000 0.000000e+000
    outer loop
      vertex   4.500000e+001 2.100000e+001 1.500000e+000
      vertex   4.500000e+001 -2.100000e+001 3.000000e+000
      vertex   4.500000e+001 -2.100000e+001 1.500000e+000
    endloop
  endfacet
  facet normal -1.000000e+000 0.000000e+000 -0.000000e+000
    outer loop
      vertex   -4.500000e+001 -2.100000e+001 3.000000e+000
      vertex   -4.500000e+001 2.100000e+001 3.000000e+000
      vertex   -4.500000e+001 -2.100000e+001 1.500000e+000
    endloop
  endfacet
  facet normal -1.000000e+000 0.000000e+000 0.000000e+000
    outer loop
      vertex   -4.500000e+001 -2.100000e+001 1.500000e+000
      vertex   -4.500000e+001 2.100000e+001 3.000000e+000
      vertex   -4.500000e+001 2.100000e+001 1.500000e+000
    endloop
  endfacet
  facet normal 0.000000e+000 -0.000000e+000 1.000000e+000
    outer loop
      vertex   1.200000e+001 -2.100000e+001 3.000000e+000
      vertex   4.500000e+001 -2.100000e+001 3.000000e+000
      vertex   1.200000e+001 -1.300000e+001 3.000000e+000
    endloop
  endfacet
  facet normal -0.000000e+000 0.000000e+000 1.000000e+000
    outer loop
      vertex   1.200000e+001 -1.300000e+001 3.000000e+000
      vertex   4.500000e+001 -2.100000e+001 3.000000e+000
      vertex   4.500000e+001 2.100000e+001 3.000000e+000
    endloop
  endfacet
  facet normal 0.000000e+000 -0.000000e+000 1.000000e+000
    outer loop
      vertex   1.000000e+001 -1.300000e+001 3.000000e+000
      vertex   4.500000e+001 2.100000e+001 3.000000e+000
      vertex   -4.500000e+001 2.100000e+001 3.000000e+000
    endloop
  endfacet
  facet normal 0.000000e+000 0.000000e+000 1.000000e+000
    outer loop
      vertex   -1.000000e+001 -1.300000e+001 3.000000e+000
      vertex   -4.500000e+001 2.100000e+001 3.000000e+000
      vertex   -1.200000e+001 -1.300000e+001 3.000000e+000
    endloop
  endfacet
  facet normal 0.000000e+000 -0.000000e+000 1.000000e+000
    outer loop
      vertex   -1.000000e+001 -1.300000e+001 3.000000e+000
      vertex   1.000000e+001 -1.300000e+001 3.000000e+000
      vertex   -4.500000e+001 2.100000e+001 3.000000e+000
    endloop
  endfacet
  facet normal -0.000000e+000 0.000000e+000 1.000000e+000
    outer loop
      vertex   -1.000000e+001 -1.300000e+001 3.000000e+000
      vertex   1.000000e+001 -1.800000e+001 3.000000e+000
      vertex   1.000000e+001 -1.300000e+001 3.000000e+000
    endloop
  endfacet
  facet normal -0.000000e+000 0.000000e+000 1.000000e+000
    outer loop
      vertex   -1.000000e+001 -1.300000e+001 3.000000e+000
      vertex   -1.000000e+001 -1.800000e+001 3.000000e+000
      vertex   1.000000e+001 -1.800000e+001 3.000000e+000
    endloop
  endfacet
  facet normal -0.000000e+000 0.000000e+000 1.000000e+000
    outer loop
      vertex   -4.500000e+001 2.100000e+001 3.000000e+000
      vertex   -4.500000e+001 -2.100000e+001 3.000000e+000
      vertex   -1.200000e+001 -1.300000e+001 3.000000e+000
    endloop
  endfacet
  facet normal -0.000000e+000 0.000000e+000 1.000000e+000
    outer loop
      vertex   -1.200000e+001 -1.300000e+001 3.000000e+000
      vertex   -4.500000e+001 -2.100000e+001 3.000000e+000
      vertex   -1.200000e+001 -2.100000e+001 3.000000e+000
    endloop
  endfacet
  facet normal 0.000000e+000 0.000000e+000 1.000000e+000
    outer loop
      vertex   1.000000e+001 -1.300000e+001 3.000000e+000
      vertex   1.200000e+001 -1.300000e+001 3.000000e+000
      vertex   4.500000e+001 2.100000e+001 3.000000e+000
    endloop
  endfacet
  facet normal 0.000000e+000 0.000000e+000 1.000000e+000
    outer loop
      vertex   -4.500000e+001 2.100000e+001 1.500000e+000
      vertex   -5.400000e+001 2.100000e+001 1.500000e+000
      vertex   -4.500000e+001 -2.100000e+001 1.500000e+000
    endloop
  endfacet
  facet normal 0.000000e+000 0.000000e+000 1.000000e+000
    outer loop
      vertex   -4.500000e+001 -2.100000e+001 1.500000e+000
      vertex   -5.400000e+001 2.100000e+001 1.500000e+000
      vertex   -5.400000e+001 -2.100000e+001 1.500000e+000
    endloop
  endfacet
  facet normal -0.000000e+000 1.000000e+000 0.000000e+000
    outer loop
      vertex   -5.400000e+001 2.100000e+001 1.500000e+000
      vertex   -4.500000e+001 2.100000e+001 1.500000e+000
      vertex   -5.400000e+001 2.100000e+001 0.000000e+000
    endloop
  endfacet
  facet normal 0.000000e+000 1.000000e+000 0.000000e+000
    outer loop
      vertex   -5.400000e+001 2.100000e+001 0.000000e+000
      vertex   -4.500000e+001 2.100000e+001 1.500000e+000
      vertex   4.500000e+001 2.100000e+001 1.500000e+000
    endloop
  endfacet
  facet normal 0.000000e+000 1.000000e+000 -0.000000e+000
    outer loop
      vertex   5.400000e+001 2.100000e+001 0.000000e+000
      vertex   4.500000e+001 2.100000e+001 1.500000e+000
      vertex   5.400000e+001 2.100000e+001 1.500000e+000
    endloop
  endfacet
  facet normal 0.000000e+000 1.000000e+000 -0.000000e+000
    outer loop
      vertex   5.400000e+001 2.100000e+001 0.000000e+000
      vertex   -5.400000e+001 2.100000e+001 0.000000e+000
      vertex   4.500000e+001 2.100000e+001 1.500000e+000
    endloop
  endfacet
  facet normal -0.000000e+000 1.000000e+000 0.000000e+000
    outer loop
      vertex   -4.500000e+001 2.100000e+001 3.000000e+000
      vertex   4.500000e+001 2.100000e+001 3.000000e+000
      vertex   -4.500000e+001 2.100000e+001 1.500000e+000
    endloop
  endfacet
  facet normal -0.000000e+000 1.000000e+000 0.000000e+000
    outer loop
      vertex   -4.500000e+001 2.100000e+001 1.500000e+000
      vertex   4.500000e+001 2.100000e+001 3.000000e+000
      vertex   4.500000e+001 2.100000e+001 1.500000e+000
    endloop
  endfacet
  facet normal 1.000000e+000 0.000000e+000 0.000000e+000
    outer loop
      vertex   5.400000e+001 2.100000e+001 1.500000e+000
      vertex   5.400000e+001 -2.100000e+001 1.500000e+000
      vertex   5.400000e+001 2.100000e+001 0.000000e+000
    endloop
  endfacet
  facet normal 1.000000e+000 0.000000e+000 0.000000e+000
    outer loop
      vertex   5.400000e+001 2.100000e+001 0.000000e+000
      vertex   5.400000e+001 -2.100000e+001 1.500000e+000
      vertex   5.400000e+001 -2.100000e+001 0.000000e+000
    endloop
  endfacet
  facet normal -0.000000e+000 -1.000000e+000 -0.000000e+000
    outer loop
      vertex   5.400000e+001 -2.100000e+001 1.500000e+000
      vertex   4.500000e+001 -2.100000e+001 1.500000e+000
      vertex   5.400000e+001 -2.100000e+001 0.000000e+000
    endloop
  endfacet
  facet normal 0.000000e+000 -1.000000e+000 0.000000e+000
    outer loop
      vertex   5.400000e+001 -2.100000e+001 0.000000e+000
      vertex   4.500000e+001 -2.100000e+001 1.500000e+000
      vertex   1.200000e+001 -2.100000e+001 3.000000e+000
    endloop
  endfacet
  facet normal 0.000000e+000 -1.000000e+000 0.000000e+000
    outer loop
      vertex   -1.200000e+001 -2.100000e+001 3.000000e+000
      vertex   1.200000e+001 -2.100000e+001 3.000000e+000
      vertex   -1.200000e+001 -2.100000e+001 2.000000e+001
    endloop
  endfacet
  facet normal 0.000000e+000 -1.000000e+000 0.000000e+000
    outer loop
      vertex   -1.200000e+001 -2.100000e+001 3.000000e+000
      vertex   5.400000e+001 -2.100000e+001 0.000000e+000
      vertex   1.200000e+001 -2.100000e+001 3.000000e+000
    endloop
  endfacet
  facet normal 0.000000e+000 -1.000000e+000 -0.000000e+000
    outer loop
      vertex   -1.200000e+001 -2.100000e+001 3.000000e+000
      vertex   -5.400000e+001 -2.100000e+001 0.000000e+000
      vertex   5.400000e+001 -2.100000e+001 0.000000e+000
    endloop
  endfacet
  facet normal 0.000000e+000 -1.000000e+000 0.000000e+000
    outer loop
      vertex   -1.200000e+001 -2.100000e+001 3.000000e+000
      vertex   -4.500000e+001 -2.100000e+001 1.500000e+000
      vertex   -5.400000e+001 -2.100000e+001 0.000000e+000
    endloop
  endfacet
  facet normal -0.000000e+000 -1.000000e+000 -0.000000e+000
    outer loop
      vertex   -1.200000e+001 -2.100000e+001 3.000000e+000
      vertex   -4.500000e+001 -2.100000e+001 3.000000e+000
      vertex   -4.500000e+001 -2.100000e+001 1.500000e+000
    endloop
  endfacet
  facet normal 0.000000e+000 -1.000000e+000 0.000000e+000
    outer loop
      vertex   4.500000e+001 -2.100000e+001 1.500000e+000
      vertex   4.500000e+001 -2.100000e+001 3.000000e+000
      vertex   1.200000e+001 -2.100000e+001 3.000000e+000
    endloop
  endfacet
  facet normal 0.000000e+000 -1.000000e+000 0.000000e+000
    outer loop
      vertex   1.200000e+001 -2.100000e+001 3.000000e+000
      vertex   1.200000e+001 -2.100000e+001 2.000000e+001
      vertex   -1.200000e+001 -2.100000e+001 2.000000e+001
    endloop
  endfacet
  facet normal -0.000000e+000 -1.000000e+000 -0.000000e+000
    outer loop
      vertex   -4.500000e+001 -2.100000e+001 1.500000e+000
      vertex   -5.400000e+001 -2.100000e+001 1.500000e+000
      vertex   -5.400000e+001 -2.100000e+001 0.000000e+000
    endloop
  endfacet
  facet normal -1.000000e+000 0.000000e+000 -0.000000e+000
    outer loop
      vertex   -5.400000e+001 -2.100000e+001 1.500000e+000
      vertex   -5.400000e+001 2.100000e+001 1.500000e+000
      vertex   -5.400000e+001 -2.100000e+001 0.000000e+000
    endloop
  endfacet
  facet normal -1.000000e+000 0.000000e+000 0.000000e+000
    outer loop
      vertex   -5.400000e+001 -2.100000e+001 0.000000e+000
      vertex   -5.400000e+001 2.100000e+001 1.500000e+000
      vertex   -5.400000e+001 2.100000e+001 0.000000e+000
    endloop
  endfacet
  facet normal 0.000000e+000 -0.000000e+000 1.000000e+000
    outer loop
      vertex   4.500000e+001 -2.100000e+001 1.500000e+000
      vertex   5.400000e+001 -2.100000e+001 1.500000e+000
      vertex   4.500000e+001 2.100000e+001 1.500000e+000
    endloop
  endfacet
  facet normal -0.000000e+000 0.000000e+000 1.000000e+000
    outer loop
      vertex   4.500000e+001 2.100000e+001 1.500000e+000
      vertex   5.400000e+001 -2.100000e+001 1.500000e+000
      vertex   5.400000e+001 2.100000e+001 1.500000e+000
    endloop
  endfacet
  facet normal 0.000000e+000 -0.000000e+000 -1.000000e+000
    outer loop
      vertex   -5.400000e+001 2.100000e+001 0.000000e+000
      vertex   5.400000e+001 2.100000e+001 0.000000e+000
      vertex   -5.400000e+001 -2.100000e+001 0.000000e+000
    endloop
  endfacet
  facet normal 0.000000e+000 0.000000e+000 -1.000000e+000
    outer loop
      vertex   -5.400000e+001 -2.100000e+001 0.000000e+000
      vertex   5.400000e+001 2.100000e+001 0.000000e+000
      vertex   5.400000e+001 -2.100000e+001 0.000000e+000
    endloop
  endfacet
endsolid
