solid ascii
  facet normal -0.000000e+000 1.000000e+000 0.000000e+000
    outer loop
      vertex   -5.250000e+001 2.700000e+001 2.000000e+000
      vertex   -1.500000e+001 2.700000e+001 2.000000e+000
      vertex   -5.250000e+001 2.700000e+001 0.000000e+000
    endloop
  endfacet
  facet normal -0.000000e+000 1.000000e+000 0.000000e+000
    outer loop
      vertex   -5.250000e+001 2.700000e+001 0.000000e+000
      vertex   -1.500000e+001 2.700000e+001 2.000000e+000
      vertex   -1.500000e+001 2.700000e+001 0.000000e+000
    endloop
  endfacet
  facet normal -1.000000e+000 -1.513940e-016 0.000000e+000
    outer loop
      vertex   -1.500000e+001 2.700000e+001 2.000000e+000
      vertex   -1.500000e+001 7.100000e+001 2.000000e+000
      vertex   -1.500000e+001 2.700000e+001 0.000000e+000
    endloop
  endfacet
  facet normal -1.000000e+000 -1.513940e-016 -0.000000e+000
    outer loop
      vertex   -1.500000e+001 2.700000e+001 0.000000e+000
      vertex   -1.500000e+001 7.100000e+001 2.000000e+000
      vertex   -1.500000e+001 7.100000e+001 0.000000e+000
    endloop
  endfacet
  facet normal -2.960595e-016 1.000000e+000 0.000000e+000
    outer loop
      vertex   -1.500000e+001 7.100000e+001 2.000000e+000
      vertex   1.500000e+001 7.100000e+001 2.000000e+000
      vertex   -1.500000e+001 7.100000e+001 0.000000e+000
    endloop
  endfacet
  facet normal -2.960595e-016 1.000000e+000 0.000000e+000
    outer loop
      vertex   -1.500000e+001 7.100000e+001 0.000000e+000
      vertex   1.500000e+001 7.100000e+001 2.000000e+000
      vertex   1.500000e+001 7.100000e+001 0.000000e+000
    endloop
  endfacet
  facet normal 1.000000e+000 0.000000e+000 0.000000e+000
    outer loop
      vertex   1.500000e+001 7.100000e+001 2.000000e+000
      vertex   1.500000e+001 2.700000e+001 2.000000e+000
      vertex   1.500000e+001 7.100000e+001 0.000000e+000
    endloop
  endfacet
  facet normal 1.000000e+000 0.000000e+000 0.000000e+000
    outer loop
      vertex   1.500000e+001 7.100000e+001 0.000000e+000
      vertex   1.500000e+001 2.700000e+001 2.000000e+000
      vertex   1.500000e+001 2.700000e+001 0.000000e+000
    endloop
  endfacet
  facet normal -0.000000e+000 1.000000e+000 0.000000e+000
    outer loop
      vertex   1.500000e+001 2.700000e+001 2.000000e+000
      vertex   5.250000e+001 2.700000e+001 2.000000e+000
      vertex   1.500000e+001 2.700000e+001 0.000000e+000
    endloop
  endfacet
  facet normal -0.000000e+000 1.000000e+000 0.000000e+000
    outer loop
      vertex   1.500000e+001 2.700000e+001 0.000000e+000
      vertex   5.250000e+001 2.700000e+001 2.000000e+000
      vertex   5.250000e+001 2.700000e+001 0.000000e+000
    endloop
  endfacet
  facet normal 1.000000e+000 0.000000e+000 0.000000e+000
    outer loop
      vertex   5.250000e+001 2.700000e+001 2.000000e+000
      vertex   5.250000e+001 -2.700000e+001 2.000000e+000
      vertex   5.250000e+001 2.700000e+001 0.000000e+000
    endloop
  endfacet
  facet normal 1.000000e+000 0.000000e+000 0.000000e+000
    outer loop
      vertex   5.250000e+001 2.700000e+001 0.000000e+000
      vertex   5.250000e+001 -2.700000e+001 2.000000e+000
      vertex   5.250000e+001 -2.700000e+001 0.000000e+000
    endloop
  endfacet
  facet normal -0.000000e+000 -1.000000e+000 -0.000000e+000
    outer loop
      vertex   5.250000e+001 -2.700000e+001 2.000000e+000
      vertex   -5.250000e+001 -2.700000e+001 2.000000e+000
      vertex   5.250000e+001 -2.700000e+001 0.000000e+000
    endloop
  endfacet
  facet normal -0.000000e+000 -1.000000e+000 -0.000000e+000
    outer loop
      vertex   5.250000e+001 -2.700000e+001 0.000000e+000
      vertex   -5.250000e+001 -2.700000e+001 2.000000e+000
      vertex   -5.250000e+001 -2.700000e+001 0.000000e+000
    endloop
  endfacet
  facet normal -1.000000e+000 0.000000e+000 -0.000000e+000
    outer loop
      vertex   -5.250000e+001 -2.700000e+001 2.000000e+000
      vertex   -5.250000e+001 2.700000e+001 2.000000e+000
      vertex   -5.250000e+001 -2.700000e+001 0.000000e+000
    endloop
  endfacet
  facet normal -1.000000e+000 0.000000e+000 0.000000e+000
    outer loop
      vertex   -5.250000e+001 -2.700000e+001 0.000000e+000
      vertex   -5.250000e+001 2.700000e+001 2.000000e+000
      vertex   -5.250000e+001 2.700000e+001 0.000000e+000
    endloop
  endfacet
  facet normal -0.000000e+000 0.000000e+000 1.000000e+000
    outer loop
      vertex   -5.250000e+001 2.700000e+001 2.000000e+000
      vertex   -5.250000e+001 -2.700000e+001 2.000000e+000
      vertex   -1.500000e+001 2.700000e+001 2.000000e+000
    endloop
  endfacet
  facet normal -0.000000e+000 0.000000e+000 1.000000e+000
    outer loop
      vertex   -1.500000e+001 2.700000e+001 2.000000e+000
      vertex   -5.250000e+001 -2.700000e+001 2.000000e+000
      vertex   5.250000e+001 -2.700000e+001 2.000000e+000
    endloop
  endfacet
  facet normal -0.000000e+000 0.000000e+000 1.000000e+000
    outer loop
      vertex   1.500000e+001 2.700000e+001 2.000000e+000
      vertex   5.250000e+001 -2.700000e+001 2.000000e+000
      vertex   5.250000e+001 2.700000e+001 2.000000e+000
    endloop
  endfacet
  facet normal 0.000000e+000 0.000000e+000 1.000000e+000
    outer loop
      vertex   1.500000e+001 2.700000e+001 2.000000e+000
      vertex   -1.500000e+001 2.700000e+001 2.000000e+000
      vertex   5.250000e+001 -2.700000e+001 2.000000e+000
    endloop
  endfacet
  facet normal 0.000000e+000 0.000000e+000 1.000000e+000
    outer loop
      vertex   1.500000e+001 2.700000e+001 2.000000e+000
      vertex   -1.500000e+001 7.100000e+001 2.000000e+000
      vertex   -1.500000e+001 2.700000e+001 2.000000e+000
    endloop
  endfacet
  facet normal 0.000000e+000 -0.000000e+000 1.000000e+000
    outer loop
      vertex   1.500000e+001 2.700000e+001 2.000000e+000
      vertex   1.500000e+001 7.100000e+001 2.000000e+000
      vertex   -1.500000e+001 7.100000e+001 2.000000e+000
    endloop
  endfacet
  facet normal 0.000000e+000 -0.000000e+000 -1.000000e+000
    outer loop
      vertex   -5.250000e+001 2.700000e+001 0.000000e+000
      vertex   -1.500000e+001 2.700000e+001 0.000000e+000
      vertex   -5.250000e+001 -2.700000e+001 0.000000e+000
    endloop
  endfacet
  facet normal 0.000000e+000 0.000000e+000 -1.000000e+000
    outer loop
      vertex   -5.250000e+001 -2.700000e+001 0.000000e+000
      vertex   -1.500000e+001 2.700000e+001 0.000000e+000
      vertex   1.500000e+001 2.700000e+001 0.000000e+000
    endloop
  endfacet
  facet normal 0.000000e+000 0.000000e+000 -1.000000e+000
    outer loop
      vertex   5.250000e+001 -2.700000e+001 0.000000e+000
      vertex   1.500000e+001 2.700000e+001 0.000000e+000
      vertex   5.250000e+001 2.700000e+001 0.000000e+000
    endloop
  endfacet
  facet normal 0.000000e+000 0.000000e+000 -1.000000e+000
    outer loop
      vertex   5.250000e+001 -2.700000e+001 0.000000e+000
      vertex   -5.250000e+001 -2.700000e+001 0.000000e+000
      vertex   1.500000e+001 2.700000e+001 0.000000e+000
    endloop
  endfacet
  facet normal 0.000000e+000 -0.000000e+000 -1.000000e+000
    outer loop
      vertex   -1.500000e+001 7.100000e+001 0.000000e+000
      vertex   1.500000e+001 7.100000e+001 0.000000e+000
      vertex   -1.500000e+001 2.700000e+001 0.000000e+000
    endloop
  endfacet
  facet normal 0.000000e+000 0.000000e+000 -1.000000e+000
    outer loop
      vertex   -1.500000e+001 2.700000e+001 0.000000e+000
      vertex   1.500000e+001 7.100000e+001 0.000000e+000
      vertex   1.500000e+001 2.700000e+001 0.000000e+000
    endloop
  endfacet
endsolid
